<?xml version="1.0" encoding="UTF-8" standalone="no" ?>
<!DOCTYPE svg PUBLIC "-//W3C//DTD SVG 1.1//EN" "http://www.w3.org/Graphics/SVG/1.1/DTD/svg11.dtd">
<svg xmlns="http://www.w3.org/2000/svg" xmlns:xlink="http://www.w3.org/1999/xlink" version="1.1" width="1280" height="1024" viewBox="0 0 1280 1024" xml:space="preserve">
<desc>Created with Fabric.js 4.4.0</desc>
<defs>
</defs>
<g transform="matrix(1 0 0 1 640 512)" id="background-logo"  >
<rect style="stroke: none; stroke-width: 0; stroke-dasharray: none; stroke-linecap: butt; stroke-dashoffset: 0; stroke-linejoin: miter; stroke-miterlimit: 4; fill: rgb(255,255,255); fill-rule: nonzero; opacity: 1;"  paint-order="stroke"  x="-640" y="-512" rx="0" ry="0" width="1280" height="1024" />
</g>
<g transform="matrix(1.9211538461538462 0 0 1.9211538461538462 800.1702356756964 521.5036534624998)" id="text-logo-path"  >
<linearGradient id="SVGID_108_2_132803" gradientUnits="userSpaceOnUse" gradientTransform="matrix(1 0 0 1 0.8000000000000114 -51.92)"  x1="0" y1="0" x2="0" y2="90">
<stop offset="0%" style="stop-color:rgb(248,77,158);stop-opacity: 1"/>
<stop offset="100%" style="stop-color:rgb(255,116,117);stop-opacity: 1"/>
</linearGradient>
<path style="stroke: rgb(255,255,255); stroke-width: 0; stroke-dasharray: none; stroke-linecap: butt; stroke-dashoffset: 0; stroke-linejoin: miter; stroke-miterlimit: 4; fill: url(#SVGID_108_2_132803); fill-rule: nonzero; opacity: 1;"  paint-order="stroke"  transform=" translate(-179.72, 20.880000000000003)" d="M 0.8 -11.44 L 0.8 -11.44 Q 0.8 -14.16 2.24 -15.88 Q 3.68 -17.6 5.16 -17.6 Q 6.64 -17.6 7.48 -16.56 Q 8.32 -15.52 8.32 -14.08 L 8.32 -14.08 Q 8.32 -11.12 6.16 -9.36 L 6.16 -9.36 Q 7.04 -5.92 9.8 -4.28 Q 12.56 -2.64 15.92 -2.64 L 15.92 -2.64 Q 20.88 -2.64 23.8 -6 Q 26.72 -9.36 26.72 -13.52 L 26.72 -13.52 Q 26.72 -17.76 23.52 -20.8 L 23.52 -20.8 Q 21.12 -22.96 17.36 -25.44 L 17.36 -25.44 L 13.28 -28.08 Q 8.88 -30.88 6.56 -33.88 Q 4.24 -36.88 4.24 -41.32 Q 4.24 -45.76 7.6 -48.84 Q 10.96 -51.92 15.56 -51.92 Q 20.16 -51.92 23.28 -49.84 Q 26.4 -47.76 26.4 -44.8 L 26.4 -44.8 Q 26.4 -43.36 25.56 -42.52 Q 24.72 -41.68 23.12 -41.68 Q 21.52 -41.68 20.04 -43.04 Q 18.56 -44.4 18.56 -45.52 Q 18.56 -46.64 18.8 -47.36 L 18.8 -47.36 Q 18.08 -48.72 15.44 -48.72 Q 12.8 -48.72 10.76 -46.64 Q 8.72 -44.56 8.72 -42 L 8.72 -42 Q 8.72 -37.84 16.24 -32.88 L 16.24 -32.88 L 20.32 -30.16 Q 22.96 -28.32 24.28 -27.32 Q 25.6 -26.32 27.6 -24.24 L 27.6 -24.24 Q 31.44 -20.24 31.44 -13.68 Q 31.44 -7.12 26.88 -3.12 Q 22.32 0.88 16.08 0.88 Q 9.84 0.88 5.32 -2.92 Q 0.8 -6.72 0.8 -11.44 Z M 33.44 -19.32 Q 33.44 -27.92 38.36 -33.48 Q 43.28 -39.04 51.64 -39.04 Q 60 -39.04 64.92 -33.52 Q 69.84 -28 69.84 -19.4 Q 69.84 -10.8 64.96 -5.16 Q 60.08 0.48 51.56 0.48 Q 43.04 0.48 38.24 -5.12 Q 33.44 -10.72 33.44 -19.32 Z M 41.84 -7.92 Q 45.76 -3.28 51.6 -3.28 Q 57.44 -3.28 61.4 -7.88 Q 65.36 -12.48 65.36 -19.28 Q 65.36 -26.08 61.36 -30.68 Q 57.36 -35.28 51.6 -35.28 Q 45.84 -35.28 41.88 -30.72 Q 37.92 -26.16 37.92 -19.36 Q 37.92 -12.56 41.84 -7.92 Z M 71.84 -11.44 L 71.84 -11.44 Q 71.84 -14.16 73.28 -15.88 Q 74.72 -17.6 76.2 -17.6 Q 77.68 -17.6 78.52 -16.56 Q 79.36 -15.52 79.36 -14.08 L 79.36 -14.08 Q 79.36 -11.12 77.2 -9.36 L 77.2 -9.36 Q 78.08 -5.92 80.84 -4.28 Q 83.6 -2.64 86.96 -2.64 L 86.96 -2.64 Q 91.92 -2.64 94.84 -6 Q 97.76 -9.36 97.76 -13.52 L 97.76 -13.52 Q 97.76 -17.76 94.56 -20.8 L 94.56 -20.8 Q 92.16 -22.96 88.4 -25.44 L 88.4 -25.44 L 84.32 -28.08 Q 79.92 -30.88 77.6 -33.88 Q 75.28 -36.88 75.28 -41.32 Q 75.28 -45.76 78.64 -48.84 Q 82 -51.92 86.6 -51.92 Q 91.2 -51.92 94.32 -49.84 Q 97.44 -47.76 97.44 -44.8 L 97.44 -44.8 Q 97.44 -43.36 96.6 -42.52 Q 95.76 -41.68 94.16 -41.68 Q 92.56 -41.68 91.08 -43.04 Q 89.6 -44.4 89.6 -45.52 Q 89.6 -46.64 89.84 -47.36 L 89.84 -47.36 Q 89.12 -48.72 86.48 -48.72 Q 83.84 -48.72 81.8 -46.64 Q 79.76 -44.56 79.76 -42 L 79.76 -42 Q 79.76 -37.84 87.28 -32.88 L 87.28 -32.88 L 91.36 -30.16 Q 94 -28.32 95.32 -27.32 Q 96.64 -26.32 98.64 -24.24 L 98.64 -24.24 Q 102.48 -20.24 102.48 -13.68 Q 102.48 -7.12 97.92 -3.12 Q 93.36 0.88 87.12 0.88 Q 80.88 0.88 76.36 -2.92 Q 71.84 -6.72 71.84 -11.44 Z M 104.48 -19.32 Q 104.48 -27.92 109.4 -33.48 Q 114.32 -39.04 122.68 -39.04 Q 131.04 -39.04 135.96 -33.52 Q 140.88 -28 140.88 -19.4 Q 140.88 -10.8 136 -5.16 Q 131.12 0.48 122.6 0.48 Q 114.08 0.48 109.28 -5.12 Q 104.48 -10.72 104.48 -19.32 Z M 112.88 -7.92 Q 116.8 -3.28 122.64 -3.28 Q 128.48 -3.28 132.44 -7.88 Q 136.4 -12.48 136.4 -19.28 Q 136.4 -26.08 132.4 -30.68 Q 128.4 -35.28 122.64 -35.28 Q 116.88 -35.28 112.92 -30.72 Q 108.96 -26.16 108.96 -19.36 Q 108.96 -12.56 112.88 -7.92 Z M 142.88 -11.44 L 142.88 -11.44 Q 142.88 -14.16 144.32 -15.88 Q 145.76 -17.6 147.24 -17.6 Q 148.72 -17.6 149.56 -16.56 Q 150.4 -15.52 150.4 -14.08 L 150.4 -14.08 Q 150.4 -11.12 148.24 -9.36 L 148.24 -9.36 Q 149.12 -5.92 151.88 -4.28 Q 154.64 -2.64 158 -2.64 L 158 -2.64 Q 162.96 -2.64 165.88 -6 Q 168.8 -9.36 168.8 -13.52 L 168.8 -13.52 Q 168.8 -17.76 165.6 -20.8 L 165.6 -20.8 Q 163.2 -22.96 159.44 -25.44 L 159.44 -25.44 L 155.36 -28.08 Q 150.96 -30.88 148.64 -33.88 Q 146.32 -36.88 146.32 -41.32 Q 146.32 -45.76 149.68 -48.84 Q 153.04 -51.92 157.64 -51.92 Q 162.24 -51.92 165.36 -49.84 Q 168.48 -47.76 168.48 -44.8 L 168.48 -44.8 Q 168.48 -43.36 167.64 -42.52 Q 166.8 -41.68 165.2 -41.68 Q 163.6 -41.68 162.12 -43.04 Q 160.64 -44.4 160.64 -45.52 Q 160.64 -46.64 160.88 -47.36 L 160.88 -47.36 Q 160.16 -48.72 157.52 -48.72 Q 154.88 -48.72 152.84 -46.64 Q 150.8 -44.56 150.8 -42 L 150.8 -42 Q 150.8 -37.84 158.32 -32.88 L 158.32 -32.88 L 162.4 -30.16 Q 165.04 -28.32 166.36 -27.32 Q 167.68 -26.32 169.68 -24.24 L 169.68 -24.24 Q 173.52 -20.24 173.52 -13.68 Q 173.52 -7.12 168.96 -3.12 Q 164.4 0.88 158.16 0.88 Q 151.92 0.88 147.4 -2.92 Q 142.88 -6.72 142.88 -11.44 Z M 189.36 -39.36 L 189.36 -39.36 Q 196.24 -39.36 200.04 -34.88 Q 203.84 -30.4 203.84 -23.44 L 203.84 -23.44 Q 203.84 -12.4 204.64 -8.52 Q 205.44 -4.64 207.68 -3.04 L 207.68 -3.04 Q 209.04 -2.4 209.04 -1.28 L 209.04 -1.28 Q 209.04 0.8 207.12 0.8 Q 205.2 0.8 203.48 -1 Q 201.76 -2.8 200.72 -5.44 L 200.72 -5.44 Q 199.36 -2.8 196.36 -1 Q 193.36 0.8 189.2 0.8 L 189.2 0.8 Q 183.12 0.8 179.32 -3 Q 175.52 -6.8 175.52 -12.68 Q 175.52 -18.56 179.52 -22.72 Q 183.52 -26.88 189.48 -26.88 Q 195.44 -26.88 199.44 -22.96 L 199.44 -22.96 Q 199.44 -28.56 197.04 -32.36 Q 194.64 -36.16 189.68 -36.16 Q 184.72 -36.16 183.44 -33.44 L 183.44 -33.44 Q 184.16 -31.76 184.16 -30.64 Q 184.16 -29.52 183.2 -28.24 Q 182.24 -26.96 180.84 -26.96 Q 179.44 -26.96 178.64 -28.16 Q 177.84 -29.36 177.84 -30.96 L 177.84 -30.96 Q 177.84 -34.32 181.16 -36.84 Q 184.48 -39.36 189.36 -39.36 Z M 179.92 -13.04 Q 179.92 -8.64 182.88 -5.68 Q 185.84 -2.72 189.96 -2.72 Q 194.08 -2.72 196.88 -5.56 Q 199.68 -8.4 199.68 -12.48 L 199.68 -12.48 L 199.68 -13.2 Q 199.68 -17.52 196.8 -20.32 Q 193.92 -23.12 189.72 -23.12 Q 185.52 -23.12 182.72 -20.28 Q 179.92 -17.44 179.92 -13.04 Z M 259.12 -26.4 L 259.12 -4.16 L 260.96 -4.16 Q 261.84 -4.16 262.32 -3.52 Q 262.8 -2.88 262.8 -2.08 Q 262.8 -1.28 262.32 -0.64 Q 261.84 0 260.96 0 L 260.96 0 L 253.28 0 Q 252.4 0 251.92 -0.64 Q 251.44 -1.28 251.44 -2.08 Q 251.44 -2.88 251.92 -3.52 Q 252.4 -4.16 253.28 -4.16 L 253.28 -4.16 L 254.64 -4.16 L 254.64 -25.28 Q 254.64 -30.24 253.6 -32.68 Q 252.56 -35.12 249.4 -35.12 Q 246.24 -35.12 243.92 -32.48 L 243.92 -32.48 Q 239.6 -27.68 239.6 -20.64 L 239.6 -20.64 L 239.6 -4.16 L 241.2 -4.16 Q 242.16 -4.16 242.68 -3.52 Q 243.2 -2.88 243.2 -2.04 Q 243.2 -1.2 242.68 -0.6 Q 242.16 0 241.2 0 L 241.2 0 L 233.6 0 Q 231.52 0 231.52 -2.08 Q 231.52 -4.16 233.6 -4.16 L 233.6 -4.16 L 235.2 -4.16 L 235.2 -25.84 Q 235.2 -28.48 234.88 -30.32 Q 234.56 -32.16 233.28 -33.64 Q 232 -35.12 229.76 -35.12 L 229.76 -35.12 Q 225.36 -35.12 222.76 -30.48 Q 220.16 -25.84 220.16 -20.8 L 220.16 -20.8 L 220.16 -4.16 L 221.76 -4.16 Q 222.48 -4.16 223.08 -3.48 Q 223.68 -2.8 223.68 -2.04 Q 223.68 -1.28 223.12 -0.64 Q 222.56 0 221.76 0 L 221.76 0 L 213.6 0 Q 212.64 0 212.08 -0.64 Q 211.52 -1.28 211.52 -2.08 Q 211.52 -2.88 212.08 -3.52 Q 212.64 -4.16 213.6 -4.16 L 213.6 -4.16 L 215.68 -4.16 L 215.68 -34.24 L 212.88 -34.24 Q 212.08 -34.24 211.56 -34.8 Q 211.04 -35.36 211.04 -36.36 Q 211.04 -37.36 211.64 -37.88 Q 212.24 -38.4 212.88 -38.4 L 212.88 -38.4 L 218.8 -38.4 Q 219.6 -38.4 219.88 -38.16 Q 220.16 -37.92 220.16 -37.04 L 220.16 -37.04 L 220.16 -31.84 L 220.32 -31.84 Q 223.84 -38.88 230.36 -38.88 Q 236.88 -38.88 238.88 -31.36 L 238.88 -31.36 Q 243.36 -38.88 249.92 -38.88 L 249.92 -38.88 Q 254.96 -38.88 257.04 -35.24 Q 259.12 -31.6 259.12 -26.4 L 259.12 -26.4 Z M 314.88 -26.4 L 314.88 -4.16 L 316.72 -4.16 Q 317.6 -4.16 318.08 -3.52 Q 318.56 -2.88 318.56 -2.08 Q 318.56 -1.28 318.08 -0.64 Q 317.6 0 316.72 0 L 316.72 0 L 309.04 0 Q 308.16 0 307.68 -0.64 Q 307.2 -1.28 307.2 -2.08 Q 307.2 -2.88 307.68 -3.52 Q 308.16 -4.16 309.04 -4.16 L 309.04 -4.16 L 310.4 -4.16 L 310.4 -25.28 Q 310.4 -30.24 309.36 -32.68 Q 308.32 -35.12 305.16 -35.12 Q 302 -35.12 299.68 -32.48 L 299.68 -32.48 Q 295.36 -27.68 295.36 -20.64 L 295.36 -20.64 L 295.36 -4.16 L 296.96 -4.16 Q 297.92 -4.16 298.44 -3.52 Q 298.96 -2.88 298.96 -2.04 Q 298.96 -1.2 298.44 -0.6 Q 297.92 0 296.96 0 L 296.96 0 L 289.36 0 Q 287.28 0 287.28 -2.08 Q 287.28 -4.16 289.36 -4.16 L 289.36 -4.16 L 290.96 -4.16 L 290.96 -25.84 Q 290.96 -28.48 290.64 -30.32 Q 290.32 -32.16 289.04 -33.64 Q 287.76 -35.12 285.52 -35.12 L 285.52 -35.12 Q 281.12 -35.12 278.52 -30.48 Q 275.92 -25.84 275.92 -20.8 L 275.92 -20.8 L 275.92 -4.16 L 277.52 -4.16 Q 278.24 -4.16 278.84 -3.48 Q 279.44 -2.8 279.44 -2.04 Q 279.44 -1.28 278.88 -0.64 Q 278.32 0 277.52 0 L 277.52 0 L 269.36 0 Q 268.4 0 267.84 -0.64 Q 267.28 -1.28 267.28 -2.08 Q 267.28 -2.88 267.84 -3.52 Q 268.4 -4.16 269.36 -4.16 L 269.36 -4.16 L 271.44 -4.16 L 271.44 -34.24 L 268.64 -34.24 Q 267.84 -34.24 267.32 -34.8 Q 266.8 -35.36 266.8 -36.36 Q 266.8 -37.36 267.4 -37.88 Q 268 -38.4 268.64 -38.4 L 268.64 -38.4 L 274.56 -38.4 Q 275.36 -38.4 275.64 -38.16 Q 275.92 -37.92 275.92 -37.04 L 275.92 -37.04 L 275.92 -31.84 L 276.08 -31.84 Q 279.6 -38.88 286.12 -38.88 Q 292.64 -38.88 294.64 -31.36 L 294.64 -31.36 Q 299.12 -38.88 305.68 -38.88 L 305.68 -38.88 Q 310.72 -38.88 312.8 -35.24 Q 314.88 -31.6 314.88 -26.4 L 314.88 -26.4 Z M 324.56 -34.24 L 321.76 -34.24 Q 321.12 -34.24 320.6 -34.92 Q 320.08 -35.6 320.08 -36.36 Q 320.08 -37.12 320.6 -37.76 Q 321.12 -38.4 321.76 -38.4 L 321.76 -38.4 L 331.28 -38.4 Q 331.92 -38.4 332.44 -37.76 Q 332.96 -37.12 332.96 -36.36 Q 332.96 -35.6 332.44 -34.92 Q 331.92 -34.24 331.28 -34.24 L 331.28 -34.24 L 329.04 -34.16 L 339.76 -9.36 L 350.72 -34.24 L 348.8 -34.24 Q 348.08 -34.24 347.52 -34.92 Q 346.96 -35.6 346.96 -36.36 Q 346.96 -37.12 347.48 -37.76 Q 348 -38.4 348.8 -38.4 L 348.8 -38.4 L 356.8 -38.4 Q 357.6 -38.4 358.12 -37.76 Q 358.64 -37.12 358.64 -36.36 Q 358.64 -35.6 358.08 -34.92 Q 357.52 -34.24 356.8 -34.24 L 356.8 -34.24 L 354.88 -34.24 L 339.68 -0.16 Q 336.32 7.6 332.8 9.28 L 332.8 9.28 Q 331.04 10.16 328.4 10.16 Q 325.76 10.16 324.04 8.52 Q 322.32 6.88 322.32 5.36 L 322.32 5.36 Q 322.32 2.32 324.96 2.32 L 324.96 2.32 Q 326.96 2.32 328.12 3.88 Q 329.28 5.44 329.44 7.12 L 329.44 7.12 Q 332.8 6.88 335.92 -0.32 L 335.92 -0.32 L 337.44 -4.08 L 324.56 -34.24 Z" stroke-linecap="round" />
</g>
<g transform="matrix(1.124087767980321 0 0 1.1240877679803207 284.88946896569894 512.6064057701922)" id="logo-logo"  >
<g style=""  paint-order="stroke"   >
		<g transform="matrix(0.9075744182240925 0 0 -0.9075744182240925 60.690844444885215 -17.305538444185203)"  >
<linearGradient id="SVGID_10_132811" gradientUnits="userSpaceOnUse" gradientTransform="matrix(1 0 0 1 -15.234054087201448 -7.82995380343897)"  x1="0" y1="0" x2="0" y2="15">
<stop offset="0%" style="stop-color:rgb(248,77,158);stop-opacity: 1"/>
<stop offset="100%" style="stop-color:rgb(255,116,117);stop-opacity: 1"/>
</linearGradient>
<path style="stroke: none; stroke-width: 1; stroke-dasharray: none; stroke-linecap: butt; stroke-dashoffset: 0; stroke-linejoin: miter; stroke-miterlimit: 4; fill: url(#SVGID_10_132811); fill-rule: nonzero; opacity: 1;"  paint-order="stroke"  transform=" translate(7.615550141881239, 0.2109999999999994)" d="M 0 0 C -0.117 4.206 -3.621 7.521 -7.827 7.405 C -12.033000000000001 7.289000000000001 -15.349 3.7840000000000003 -15.231 -0.4219999999999997 C -15.115 -4.628 -11.611 -7.943 -7.405 -7.827 C -3.199 -7.71 0.116 -4.206 0 0" stroke-linecap="round" />
</g>
		<g transform="matrix(0.9075744182240925 0 0 -0.9075744182240925 39.66926538643986 -116.12426062540473)"  >
<linearGradient id="SVGID_10_132812" gradientUnits="userSpaceOnUse" gradientTransform="matrix(1 0 0 1 -7.829004182250525 -0.002953803438970226)"  x1="0" y1="0" x2="0" y2="15">
<stop offset="0%" style="stop-color:rgb(248,77,158);stop-opacity: 1"/>
<stop offset="100%" style="stop-color:rgb(255,116,117);stop-opacity: 1"/>
</linearGradient>
<path style="stroke: none; stroke-width: 1; stroke-dasharray: none; stroke-linecap: butt; stroke-dashoffset: 0; stroke-linejoin: miter; stroke-miterlimit: 4; fill: url(#SVGID_10_132812); fill-rule: nonzero; opacity: 1;"  paint-order="stroke"  transform=" translate(0.2105251894057769, -7.615525189405778)" d="M 0 0 C 4.206 0.117 7.521 3.621 7.405 7.827 C 7.288 12.033 3.784 15.348 -0.422 15.231 C -4.628 15.115 -7.943 11.611 -7.826 7.405 C -7.71 3.199 -4.206 -0.116 0 0" stroke-linecap="round" />
</g>
		<g transform="matrix(0.9075744182240925 0 0 -0.9075744182240925 -34.809354654415586 -122.77242475377992)"  >
<linearGradient id="SVGID_10_132813" gradientUnits="userSpaceOnUse" gradientTransform="matrix(1 0 0 1 -7.828954662045811 -0.002953803438970226)"  x1="0" y1="0" x2="0" y2="15">
<stop offset="0%" style="stop-color:rgb(248,77,158);stop-opacity: 1"/>
<stop offset="100%" style="stop-color:rgb(255,116,117);stop-opacity: 1"/>
</linearGradient>
<path style="stroke: none; stroke-width: 1; stroke-dasharray: none; stroke-linecap: butt; stroke-dashoffset: 0; stroke-linejoin: miter; stroke-miterlimit: 4; fill: url(#SVGID_10_132813); fill-rule: nonzero; opacity: 1;"  paint-order="stroke"  transform=" translate(0.21050042930342006, -7.615525189405778)" d="M 0 0 C 4.206 0.117 7.521 3.621 7.405 7.827 C 7.288 12.033 3.784 15.348 -0.422 15.231 C -4.628 15.115 -7.942 11.611 -7.826 7.405 C -7.71 3.199 -4.206 -0.116 0 0" stroke-linecap="round" />
</g>
		<g transform="matrix(0.9075744182240925 0 0 -0.9075744182240925 -40.43189061884999 -76.01071908282515)"  >
<linearGradient id="SVGID_10_132814" gradientUnits="userSpaceOnUse" gradientTransform="matrix(1 0 0 1 -15.234003309778771 -7.82995380343897)"  x1="0" y1="0" x2="0" y2="15">
<stop offset="0%" style="stop-color:rgb(248,77,158);stop-opacity: 1"/>
<stop offset="100%" style="stop-color:rgb(255,116,117);stop-opacity: 1"/>
</linearGradient>
<path style="stroke: none; stroke-width: 1; stroke-dasharray: none; stroke-linecap: butt; stroke-dashoffset: 0; stroke-linejoin: miter; stroke-miterlimit: 4; fill: url(#SVGID_10_132814); fill-rule: nonzero; opacity: 1;"  paint-order="stroke"  transform=" translate(7.615524323866481, 0.2109999999999994)" d="M 0 0 C -0.116 4.206 -3.62 7.521 -7.826 7.405 C -12.032 7.288 -15.347999999999999 3.7840000000000003 -15.231 -0.4219999999999997 C -15.113999999999999 -4.628 -11.61 -7.943 -7.404 -7.827 C -3.198 -7.71 0.116 -4.206 0 0" stroke-linecap="round" />
</g>
		<g transform="matrix(0.9075744182240925 0 0 -0.9075744182240925 0 2.842171e-14)"  >
<linearGradient id="SVGID_10_132815" gradientUnits="userSpaceOnUse" gradientTransform="matrix(1 0 0 1 -275.7410120161255 -117.73400042956268)"  x1="0" y1="0" x2="0" y2="292">
<stop offset="0%" style="stop-color:rgb(248,77,158);stop-opacity: 1"/>
<stop offset="100%" style="stop-color:rgb(255,116,117);stop-opacity: 1"/>
</linearGradient>
<path style="stroke: none; stroke-width: 1; stroke-dasharray: none; stroke-linecap: butt; stroke-dashoffset: 0; stroke-linejoin: miter; stroke-miterlimit: 4; fill: url(#SVGID_10_132815); fill-rule: nonzero; opacity: 1;"  paint-order="stroke"  transform=" translate(133.4314300185866, -28.347499785218673)" d="M 0 0 C -0.716 -13.631 -8.691 -28.426 -28.922 -29.069 C -46.655 -29.628 -63.158 -27.108 -78.396 -21.527 C -76.815 -17.437 -75.315 -13.413 -73.858 -9.500000000000002 C -64.46000000000001 15.717999999999998 -57.037000000000006 35.638 -40.958000000000006 37.514 C -36.011 38.093 -31.026000000000003 38.019000000000005 -25.708000000000006 37.283 C -8.512 34.913 0.867 16.465 0 0 M -98.932 87.929 C -91.04 89.06400000000001 -75.352 88.23700000000001 -58.974000000000004 69.85300000000001 C -69.705 70.95100000000001 -88.471 74.769 -98.932 87.929 M -151.044 -99.92699999999999 C -191.991 -120.38499999999999 -230.305 -102.773 -250.104 -76.24199999999999 C -270.314 -49.16399999999999 -276.425 -6.567999999999984 -244.52200000000002 27.55300000000001 C -238.53900000000002 33.95200000000001 -231.70600000000002 40.38000000000001 -224.17000000000002 46.72700000000001 C -223.98000000000002 46.15800000000001 -223.782 45.57300000000001 -223.568 44.95000000000001 C -219.93400000000003 34.33400000000001 -214.441 18.28900000000001 -235.41000000000003 1.7890000000000086 C -236.23600000000002 1.1400000000000086 -236.80300000000003 0.21800000000000863 -237.00800000000004 -0.8119999999999914 C -237.23000000000005 -1.9209999999999914 -238.69800000000004 -11.63199999999999 -224.76200000000003 -21.38499999999999 C -224.46700000000004 -22.91599999999999 -224.34700000000004 -24.496999999999993 -224.50000000000003 -25.16399999999999 C -225.31100000000004 -26.315999999999992 -225.59200000000004 -27.75699999999999 -225.27500000000003 -29.164999999999992 C -224.93500000000003 -30.682999999999993 -224.25600000000003 -33.70499999999999 -208.95800000000003 -41.617999999999995 C -213.497 -48.77499999999999 -214.42600000000002 -54.01299999999999 -211.71300000000002 -57.22 C -209.51200000000003 -59.82 -208.51700000000002 -61.257999999999996 -209.931 -65.499 C -211.185 -69.261 -210.12800000000001 -73.521 -207.03 -77.191 C -202.85 -82.146 -196.04 -85.024 -188.948 -85.023 C -187.63400000000001 -85.023 -186.309 -84.925 -184.991 -84.723 C -180.95200000000003 -84.101 -176.31 -82.16499999999999 -171.39200000000002 -80.115 C -159.88100000000003 -75.31599999999999 -146.83500000000004 -69.878 -135.99500000000003 -77.57799999999999 C -134.01000000000002 -78.98799999999999 -131.25600000000003 -78.52199999999999 -129.84500000000003 -76.53799999999998 C -128.43500000000003 -74.55299999999998 -128.90000000000003 -71.79899999999998 -130.88600000000002 -70.38799999999998 C -136.80900000000003 -66.17999999999998 -143.04700000000003 -64.77499999999998 -149.187 -64.92699999999998 C -143.29500000000002 -60.39499999999998 -137.5 -55.12999999999998 -132.726 -49.22899999999998 C -131.193 -47.33599999999998 -131.486 -44.558999999999976 -133.38 -43.025999999999975 C -135.271 -41.494999999999976 -138.04999999999998 -41.787999999999975 -139.582 -43.680999999999976 C -154.48 -62.092999999999975 -181.488 -74.33499999999998 -184.128 -75.50199999999998 C -184.914 -75.72299999999998 -185.65699999999998 -75.89999999999998 -186.332 -76.00399999999998 C -192.542 -76.95899999999997 -197.817 -74.43299999999998 -200.289 -71.50399999999998 C -201.31099999999998 -70.29299999999998 -201.81099999999998 -69.03099999999998 -201.56199999999998 -68.28899999999997 C -198.94 -60.41999999999997 -201.468 -55.84799999999997 -204.35899999999998 -52.269999999999975 C -203.92399999999998 -50.39699999999998 -201.515 -46.083999999999975 -198.908 -42.60099999999997 C -198.12099999999998 -41.54899999999997 -197.843 -40.19899999999997 -198.15099999999998 -38.92199999999997 C -198.45899999999997 -37.64499999999997 -199.32199999999997 -36.56999999999997 -200.50199999999998 -35.99299999999997 C -206.308 -33.157999999999966 -213.10099999999997 -29.366999999999965 -215.94099999999997 -27.234999999999967 C -215.10399999999998 -23.68099999999997 -216.05899999999997 -19.471999999999966 -216.62899999999996 -17.478999999999967 C -216.92099999999996 -16.45399999999997 -217.57499999999996 -15.569999999999967 -218.46799999999996 -14.990999999999968 C -225.89499999999995 -10.169999999999968 -227.74699999999996 -5.820999999999968 -228.19499999999996 -3.7119999999999678 C -204.42099999999996 16.24900000000003 -211.68699999999995 37.479000000000035 -215.22399999999996 47.80700000000003 C -215.93799999999996 49.89500000000003 -216.61299999999997 51.86700000000003 -216.71899999999997 52.88500000000003 C -218.69599999999997 72.12100000000004 -198.58699999999996 89.60700000000003 -195.77999999999997 91.94500000000004 C -193.42299999999997 93.05200000000004 -185.21199999999996 95.99100000000004 -179.36999999999998 86.61700000000003 C -178.06999999999996 81.77400000000003 -169.67699999999996 52.634000000000036 -148.69299999999998 23.488000000000035 C -132.25199999999998 0.6500000000000341 -112.36299999999999 -16.044999999999966 -89.76199999999999 -26.221999999999966 C -101.11699999999999 -53.85199999999996 -117.41199999999998 -83.12699999999997 -151.04399999999998 -99.92699999999996 M -142.91699999999997 111.54500000000004 C -134.91699999999997 116.76800000000004 -119.42599999999997 123.42100000000005 -96.88599999999997 118.01100000000004 C -105.13799999999996 113.82000000000004 -121.85399999999997 107.57100000000004 -142.91699999999997 111.54500000000004 M -141.36699999999996 163.69500000000005 C -121.69199999999996 159.06200000000004 -113.83399999999996 145.58100000000005 -110.72899999999996 136.57600000000005 C -114.76099999999995 138.48100000000005 -118.77399999999996 140.11700000000005 -122.73499999999996 141.52200000000005 C -131.73599999999996 146.41300000000004 -137.97799999999995 156.72200000000004 -141.36699999999996 163.69500000000005 M -202.55699999999996 138.38700000000006 C -190.48099999999997 140.53400000000005 -168.54599999999996 142.93200000000004 -144.50299999999996 138.31600000000006 C -156.14599999999996 132.66800000000006 -179.17899999999997 125.14500000000007 -202.55699999999996 138.38700000000006 M -67.26099999999997 143.91400000000004 C -60.554999999999964 133.96000000000004 -50.203999999999965 113.76400000000004 -59.75999999999997 94.16700000000004 C -64.49599999999997 104.40600000000005 -71.91899999999997 124.73200000000004 -67.26099999999997 143.91400000000004 M -24.502999999999965 46.02100000000004 C -29.102999999999966 46.655000000000044 -33.50199999999997 46.85200000000005 -37.84599999999996 46.62200000000004 C -42.56499999999996 61.38500000000004 -48.33899999999996 74.08700000000005 -54.86599999999996 84.96800000000005 C -32.561999999999955 119.10300000000004 -65.17599999999996 155.79500000000004 -65.51599999999996 156.17000000000004 L -70.10599999999997 161.23300000000003 L -72.82899999999997 154.96600000000004 C -79.27899999999997 140.12500000000003 -78.25899999999996 124.31400000000004 -75.12099999999997 111.28300000000004 C -83.16599999999997 119.44100000000005 -91.67999999999996 125.91000000000004 -100.28699999999996 131.02000000000004 C -101.79299999999996 139.59800000000004 -109.79899999999996 169.82500000000005 -148.10399999999996 173.73500000000004 L -154.90999999999997 174.42900000000003 L -152.73299999999998 167.94300000000004 C -152.50799999999998 167.27300000000005 -148.82899999999998 156.54700000000003 -141.307 146.66900000000004 C -141.528 146.71400000000003 -141.754 146.76600000000005 -141.975 146.81000000000003 C -180.522 154.44900000000004 -213.38799999999998 145.13500000000002 -214.766 144.73300000000003 L -222.98499999999999 142.35000000000002 L -216.27399999999997 137.04000000000002 C -177.67799999999997 106.50200000000002 -135.97299999999996 132.66500000000002 -131.97899999999998 135.30400000000003 C -130.171 134.77700000000004 -128.396 134.20100000000002 -126.63499999999999 133.60300000000004 C -122.92399999999999 131.60200000000003 -119.809 130.02100000000004 -117.196 128.76900000000003 C -141.981 127.40300000000003 -155.127 113.11300000000003 -155.823 112.33500000000004 L -160.413 107.20500000000004 L -153.834 105.17900000000004 C -145.019 102.46500000000005 -136.769 101.41200000000005 -129.26 101.41200000000005 C -109.404 101.41200000000005 -94.774 108.78800000000005 -88.874 112.34500000000006 C -81.113 105.75100000000006 -74.137 98.04200000000006 -67.965 89.21400000000006 C -89.148 102.56800000000005 -106.834 95.09600000000006 -107.78800000000001 94.67500000000005 L -112.174 92.73700000000005 L -109.878 88.52800000000005 C -96.878 64.70400000000005 -66.21000000000001 61.08900000000005 -53.628 60.64000000000004 L -53.626 60.64000000000004 C -53.547999999999995 60.63700000000004 -53.47 60.636000000000045 -53.391999999999996 60.636000000000045 C -53.059 60.636000000000045 -52.733 60.667000000000044 -52.412 60.716000000000044 C -50.338 55.80600000000004 -48.42 50.68300000000004 -46.672 45.331000000000046 C -64.744 40.18100000000005 -72.854 18.454000000000047 -82.122 -6.419999999999952 C -83.549 -10.246999999999952 -85.017 -14.184999999999953 -86.564 -18.18699999999995 C -107.457 -8.727999999999952 -125.786 6.838000000000047 -141.374 28.418000000000045 C -162.958 58.30000000000005 -170.911 89.12200000000004 -170.988 89.43000000000005 L -171.144 90.04200000000004 L -171.46200000000002 90.58500000000005 C -180.02100000000002 105.16200000000005 -193.901 102.89800000000005 -200.15 99.62400000000005 L -200.173 99.61300000000006 C -200.201 99.59800000000006 -200.232 99.58300000000006 -200.261 99.56800000000005 L -200.257 99.56000000000006 C -200.483 99.43800000000006 -200.705 99.30500000000006 -200.91400000000002 99.14100000000006 C -201.95200000000003 98.32300000000006 -224.76800000000003 80.06800000000007 -225.644 56.94900000000006 C -235.126 49.26000000000006 -243.645 41.40700000000006 -250.966 33.576000000000064 C -286.349 -4.265999999999934 -279.579 -51.49699999999993 -257.17400000000004 -81.51799999999993 C -241.86800000000002 -102.02599999999993 -216.60600000000005 -117.73699999999994 -187.31700000000004 -117.73399999999992 C -174.51700000000002 -117.73399999999992 -160.94300000000004 -114.73099999999992 -147.10100000000003 -107.81699999999992 C -110.71200000000002 -89.64099999999992 -93.50600000000003 -58.64399999999992 -81.59200000000003 -29.571999999999917 C -65.16700000000003 -35.66899999999992 -47.42100000000003 -38.490999999999914 -28.642000000000024 -37.88599999999992 C -2.4080000000000226 -37.05099999999992 7.928999999999974 -17.204999999999917 8.809999999999974 -0.4639999999999205 C 9.869999999999974 19.69900000000008 -1.4440000000000257 42.84300000000008 -24.50300000000003 46.02100000000008" stroke-linecap="round" />
</g>
		<g transform="matrix(0.9075744182240925 0 0 -0.9075744182240925 5.549701777059511 46.483475772254536)"  >
<linearGradient id="SVGID_10_132816" gradientUnits="userSpaceOnUse" gradientTransform="matrix(1 0 0 1 -0.41063634811462 -6.269)"  x1="0" y1="0" x2="0" y2="34">
<stop offset="0%" style="stop-color:rgb(248,77,158);stop-opacity: 1"/>
<stop offset="100%" style="stop-color:rgb(255,116,117);stop-opacity: 1"/>
</linearGradient>
<path style="stroke: none; stroke-width: 1; stroke-dasharray: none; stroke-linecap: butt; stroke-dashoffset: 0; stroke-linejoin: miter; stroke-miterlimit: 4; fill: url(#SVGID_10_132816); fill-rule: nonzero; opacity: 1;"  paint-order="stroke"  transform=" translate(-5.755742399169283, -10.593138876508027)" d="M 0 0 C -1.025 -2.209 -0.065 -4.832 2.144 -5.857 C 2.744 -6.136 3.375 -6.269 3.998 -6.269 C 5.662 -6.269 7.254 -5.322 8.001000000000001 -3.714 C 12.329 5.609 13.078000000000001 15.046000000000001 10.229000000000001 24.336000000000002 C 9.514 26.665 7.047 27.975 4.719 27.26 C 2.391 26.545 1.081 24.078 1.797 21.75 C 4.019 14.505 3.431 7.391 0 0" stroke-linecap="round" />
</g>
		<g transform="matrix(0.9075744182240925 0 0 -0.9075744182240925 12.197856967091013 -20.829092267611514)"  >
<linearGradient id="SVGID_10_132817" gradientUnits="userSpaceOnUse" gradientTransform="matrix(1 0 0 1 -67.56379562752791 -0.06900000000000261)"  x1="0" y1="0" x2="0" y2="88">
<stop offset="0%" style="stop-color:rgb(248,77,158);stop-opacity: 1"/>
<stop offset="100%" style="stop-color:rgb(255,116,117);stop-opacity: 1"/>
</linearGradient>
<path style="stroke: none; stroke-width: 1; stroke-dasharray: none; stroke-linecap: butt; stroke-dashoffset: 0; stroke-linejoin: miter; stroke-miterlimit: 4; fill: url(#SVGID_10_132817); fill-rule: nonzero; opacity: 1;"  paint-order="stroke"  transform=" translate(31.1885674494374, -43.81538556825022)" d="M 0 0 C 0.263 -0.047 0.523 -0.069 0.781 -0.069 C 2.8770000000000002 -0.069 4.736 1.4300000000000002 5.117 3.564 C 5.546 5.962 3.949 8.254000000000001 1.553 8.683 C -43.040000000000006 16.655 -58.698 83.58600000000001 -58.851000000000006 84.262 C -59.389 86.636 -61.745000000000005 88.128 -64.125 87.59 C -66.5 87.053 -67.99 84.69500000000001 -67.455 82.319 C -66.78 79.33 -50.367 9.005 0 0" stroke-linecap="round" />
</g>
</g>
</g>
</svg>